<?xml version="1.0" standalone="no"?><!DOCTYPE svg PUBLIC "-//W3C//DTD SVG 1.1//EN" "http://www.w3.org/Graphics/SVG/1.1/DTD/svg11.dtd"><svg t="1673315892054" class="icon" viewBox="0 0 1024 1024" version="1.1" xmlns="http://www.w3.org/2000/svg" p-id="5111" xmlns:xlink="http://www.w3.org/1999/xlink" width="200" height="200"><path d="M505.1392 281.3952c30.208 0 54.6816 27.5456 54.6816 61.5424S535.3472 404.48 505.1392 404.48s-54.6816-27.5456-54.6816-61.5424c0.1024-33.9968 24.576-61.5424 54.6816-61.5424z" p-id="5112" fill="#1296db"></path><path d="M583.68 491.008c29.696-14.848 226.7136-104.7552 265.4208-168.5504 0 0-116.224 102.5024-343.8592 102.5024-227.7376 0-343.9616-102.5024-343.9616-102.5024 38.7072 63.7952 235.7248 153.7024 265.3184 168.5504-13.7216 64.9216 21.6064 54.6816 23.8592 83.1488 2.2528 28.4672-27.3408 31.9488-29.5936 83.1488-2.3552 51.3024 70.4512 224.3584 84.2752 356.352v0.1024-0.1024c13.7216-131.9936 86.528-305.0496 84.2752-356.352-2.2528-51.2-31.8464-54.5792-29.5936-83.1488 2.2528-28.5696 37.5808-18.2272 23.8592-83.1488zM502.5792 161.4848c0-47.2064 9.4208-85.4016 9.4208-85.4016s9.4208 38.1952 9.4208 85.4016c0 10.0352-0.512 19.456-1.1264 28.3648 13.0048-15.0528 36.6592-47.4112 36.6592-85.2992C556.9536 52.4288 512 10.24 512 10.24s-45.056 42.1888-45.056 94.3104c0 37.888 23.7568 70.3488 36.6592 85.2992-0.6144-8.9088-1.024-18.432-1.024-28.3648zM383.6928 225.6896c-3.1744-4.7104-6.4512-9.728-9.6256-15.2576-14.9504-25.9072-21.8112-49.8688-21.8112-49.8688s17.3056 18.0224 32.256 43.8272c3.1744 5.5296 5.8368 10.8544 8.2944 15.9744 2.3552-12.3904 5.12-37.6832-6.8608-58.4704-16.4864-28.5696-54.5792-37.4784-54.5792-37.4784s-11.3664 37.4784 5.12 66.048c11.9808 20.7872 35.328 31.0272 47.2064 35.2256z" p-id="5113" fill="#1296db"></path><path d="M640.4096 649.216c3.1744 4.7104 6.4512 9.728 9.6256 15.2576 14.9504 25.9072 21.9136 49.8688 21.9136 49.8688s-17.408-17.92-32.256-43.9296c-3.1744-5.5296-5.9392-10.752-8.2944-15.9744-2.3552 12.3904-5.12 37.6832 6.8608 58.4704 16.384 28.672 54.5792 37.4784 54.5792 37.4784s11.264-37.376-5.2224-66.048c-12.0832-20.6848-35.328-30.9248-47.2064-35.1232zM264.3968 432.128c-9.5232-8.192-30.1056-23.2448-54.0672-23.2448-33.0752 0-59.8016 28.5696-59.8016 28.5696s26.7264 28.5696 59.6992 28.5696c24.064 0 44.544-15.0528 54.1696-23.2448-5.632 0.4096-11.5712 0.7168-17.92 0.7168-29.9008 0-54.1696-6.0416-54.1696-6.0416s24.2688-6.0416 54.1696-6.0416c6.3488 0 12.288 0.3072 17.92 0.7168zM759.6032 442.7776c9.5232 8.192 30.1056 23.2448 54.0672 23.2448 33.0752 0 59.8016-28.5696 59.8016-28.5696s-26.7264-28.5696-59.8016-28.5696c-23.9616 0-44.544 15.0528-54.0672 23.2448 5.632-0.4096 11.5712-0.7168 17.92-0.7168 29.9008 0 54.272 6.0416 54.272 6.0416s-24.2688 6.0416-54.272 6.0416c-6.3488 0-12.288-0.3072-17.92-0.7168zM384.4096 670.4128c-14.848 25.9072-32.256 43.8272-32.256 43.8272s6.8608-23.9616 21.8112-49.8688c3.1744-5.5296 6.4512-10.4448 9.6256-15.1552-11.8784 4.1984-35.1232 14.4384-47.2064 35.2256-16.4864 28.672-5.12 66.048-5.12 66.048s38.0928-8.9088 54.5792-37.4784c11.9808-20.7872 9.3184-46.08 6.9632-58.4704-2.4576 5.0176-5.2224 10.4448-8.3968 15.872zM639.5904 204.4928c14.9504-25.9072 32.256-43.9296 32.256-43.9296s-6.8608 24.064-21.8112 49.8688c-3.072 5.5296-6.4512 10.5472-9.6256 15.2576 11.8784-4.096 35.1232-14.336 47.104-35.1232 16.4864-28.5696 5.2224-66.048 5.2224-66.048s-38.0928 8.9088-54.5792 37.4784c-11.9808 20.7872-9.3184 46.08-6.8608 58.4704 2.4576-5.2224 5.2224-10.5472 8.2944-15.9744zM201.1136 309.9648c32.8704 18.944 72.8064 14.6432 92.2624 10.8544-8.0896-3.8912-16.4864-8.192-25.1904-13.2096-40.8576-23.6544-69.3248-50.9952-69.3248-50.9952s37.9904 10.9568 78.7456 34.5088c8.704 5.0176 16.5888 10.1376 24.064 15.2576-6.4512-18.7392-22.7328-55.5008-55.6032-74.4448-45.056-26.112-104.2432-8.192-104.2432-8.192s14.2336 60.2112 59.2896 86.2208zM822.8864 564.9408c-32.8704-18.944-72.704-14.6432-92.2624-10.8544 7.9872 3.8912 16.4864 8.192 25.088 13.2096 40.8576 23.552 69.3248 50.8928 69.3248 50.8928s-37.888-10.9568-78.848-34.5088c-8.6016-5.0176-16.5888-10.1376-23.9616-15.2576 6.4512 18.7392 22.7328 55.5008 55.5008 74.4448 45.1584 26.112 104.2432 8.192 104.2432 8.192s-14.0288-60.1088-59.0848-86.1184zM198.9632 618.1888s28.4672-27.4432 69.2224-50.9952c8.704-5.0176 17.1008-9.3184 25.1904-13.2096-19.456-3.6864-59.4944-8.0896-92.2624 10.9568-45.1584 26.0096-59.1872 86.2208-59.1872 86.2208s59.0848 17.8176 104.2432-8.192c32.8704-18.944 49.0496-55.7056 55.5008-74.4448-7.3728 5.0176-15.36 10.1376-23.9616 15.1552-40.7552 23.552-78.7456 34.5088-78.7456 34.5088zM825.0368 256.7168s-28.3648 27.3408-69.2224 50.8928c-8.6016 5.0176-17.1008 9.3184-25.088 13.2096 19.456 3.7888 59.392 8.0896 92.16-10.8544 45.1584-26.112 59.1872-86.1184 59.1872-86.1184s-59.0848-17.8176-104.2432 8.192c-32.8704 18.944-49.0496 55.7056-55.5008 74.4448 7.3728-5.0176 15.2576-10.1376 23.9616-15.1552 40.8576-23.6544 78.7456-34.6112 78.7456-34.6112z" p-id="5114" fill="#1296db"></path></svg>